<?xml version="1.0" encoding="UTF-8"?>
<svg version="1.1" xmlns="http://www.w3.org/2000/svg" width="512" height="512">
<path d="M0 0 C168.96 0 337.92 0 512 0 C512 168.96 512 337.92 512 512 C343.04 512 174.08 512 0 512 C0 343.04 0 174.08 0 0 Z " fill="#000000" transform="translate(0,0)"/>
<path d="M0 0 C1.22460938 0.37511719 2.44921875 0.75023437 3.7109375 1.13671875 C8.68964158 2.72313202 13.39155044 4.47606353 17.98828125 6.97265625 C20.31715924 8.16196676 22.71279535 9.16078929 25.11938477 10.1809082 C40.57630409 16.91308584 56.30890579 25.15201996 70 35 C69.01 35.495 69.01 35.495 68 36 C66.24194336 35.18652344 66.24194336 35.18652344 64.08984375 33.859375 C63.27789551 33.37114258 62.46594727 32.88291016 61.62939453 32.37988281 C60.74106934 31.84202148 59.85274414 31.30416016 58.9375 30.75 C29.82884622 13.66525365 -8.69825455 -4.20291602 -43.375 3.125 C-51.59624859 5.4818317 -58.18845659 9.92420087 -63 17 C-68.20937072 27.23910796 -66.59824413 38.22333088 -63.44140625 48.92578125 C-55.70180125 71.7416667 -41.30609165 90.95394688 -25.22265625 108.5546875 C-23.79450584 110.12590394 -22.38391432 111.71336236 -20.99609375 113.3203125 C-9.99556476 125.96987715 2.60679366 136.97105955 16 147 C16.72590332 147.55042969 17.45180664 148.10085938 18.19970703 148.66796875 C33.21384007 160.04392905 48.71752959 169.91962177 65.20751953 178.99902344 C66.99629448 179.99793072 68.76071965 181.03285721 70.52734375 182.0703125 C73.95704032 183.97612814 77.37687063 185.49838421 81 187 C82.54972347 187.69185902 84.09778521 188.38744738 85.64453125 189.0859375 C96.91002512 194.10760253 107.98461751 198.20657037 120 201 C120.66273926 201.16226074 121.32547852 201.32452148 122.00830078 201.49169922 C137.23593642 205.15950407 156.20528739 207.0490281 170.58203125 199.67578125 C177.74849011 195.26476215 180.91745339 190.10030335 183.2890625 182.1484375 C184.00959433 179.97100615 184.92821605 178.02448079 186 176 C186.38064094 188.87835186 186.38064094 188.87835186 184 195 C183.70480469 195.76828125 183.40960938 196.5365625 183.10546875 197.328125 C179.60663281 205.38904737 174.07743247 211.47869609 166.15234375 215.4140625 C138.53508156 225.97472122 106.22289539 216.25206329 80 206 C77.97523522 205.04829521 75.99549644 204.0384807 74.01513672 202.99804688 C71.76099977 201.88162916 69.47116818 200.97295287 67.125 200.06640625 C61.89819578 198.01658131 56.95949753 195.56170244 52 192.9375 C51.09354736 192.45925781 50.18709473 191.98101562 49.25317383 191.48828125 C32.15976881 182.36622664 15.46565521 171.9775016 0.3203125 159.85546875 C-1.50323667 158.3972434 -3.34036648 156.96821959 -5.1953125 155.55078125 C-16.18533967 147.11176415 -26.30989135 137.90813609 -36 128 C-38.43612623 125.55193198 -40.88059189 123.11584959 -43.359375 120.7109375 C-49.393686 114.8146663 -54.79053671 108.63022601 -60 102 C-60.80308594 101.00226563 -61.60617188 100.00453125 -62.43359375 98.9765625 C-79.77992122 77.21295281 -97.24456562 48.92031082 -94 20 C-92.14184671 10.33026807 -86.59225076 3.35068762 -78.90625 -2.62890625 C-56.12292511 -16.86848431 -23.43065871 -7.29520509 0 0 Z " fill="#F9F9F9" transform="translate(211,150)"/>
<path d="M0 0 C9.57 0 19.14 0 29 0 C29 13.2 29 26.4 29 40 C39.89 40 50.78 40 62 40 C62 27.13 62 14.26 62 1 C71.57 1 81.14 1 91 1 C91 36.97 91 72.94 91 110 C81.43 110 71.86 110 62 110 C62 95.48 62 80.96 62 66 C51.11 66 40.22 66 29 66 C29 80.52 29 95.04 29 110 C19.43 110 9.86 110 0 110 C0 73.7 0 37.4 0 0 Z " fill="#F9F9F9" transform="translate(315,207)"/>
<path d="M0 0 C1.38465724 1.0076954 2.76097103 2.02705291 4.125 3.0625 C5.48625 3.990625 5.48625 3.990625 6.875 4.9375 C11.59142254 9.39189906 14.95059449 14.84886285 15.22265625 21.421875 C15.21105469 22.21078125 15.19945312 22.9996875 15.1875 23.8125 C15.17847656 24.61171875 15.16945313 25.4109375 15.16015625 26.234375 C15.14855469 26.83765625 15.13695312 27.4409375 15.125 28.0625 C11.04220499 28.23671117 6.96036319 28.34332588 2.875 28.4375 C1.71613281 28.48777344 0.55726563 28.53804687 -0.63671875 28.58984375 C-3.82191547 28.64507838 -6.74022912 28.63658545 -9.875 28.0625 C-12.5078125 25.15625 -12.5078125 25.15625 -13.875 22.0625 C-18.86345352 18.49931892 -23.95386183 18.34040998 -29.875 19.0625 C-33.38613043 20.40311344 -36.79907635 21.83328544 -38.875 25.0625 C-39.36870835 28.94163702 -39.53254073 31.12676897 -37.25 34.375 C-30.73127913 39.00672273 -22.34119618 38.97906068 -14.63671875 39.83007812 C-3.770885 41.1256749 5.17812819 43.1469768 13.125 51.0625 C19.44659965 59.28510574 20.40663222 67.96064605 19.125 78.0625 C16.07901484 88.30491574 9.29440903 95.08387031 0.3125 100.5 C-7.30999011 104.23651476 -16.5980091 104.80090754 -24.875 103.0625 C-31.86654183 100.23149176 -37.87214577 95.54744964 -43.875 91.0625 C-45.37670756 89.97532295 -46.87929204 88.889356 -48.3828125 87.8046875 C-52.27274468 84.9627519 -56.11085736 82.069249 -59.875 79.0625 C-60.86790039 78.28084473 -60.86790039 78.28084473 -61.88085938 77.48339844 C-62.52345703 76.96036133 -63.16605469 76.43732422 -63.828125 75.8984375 C-64.41239258 75.42712402 -64.99666016 74.95581055 -65.59863281 74.47021484 C-66.875 73.0625 -66.875 73.0625 -66.875 70.0625 C-58.295 70.0625 -49.715 70.0625 -40.875 70.0625 C-39.885 72.0425 -38.895 74.0225 -37.875 76.0625 C-33.89098832 79.4286703 -29.9553052 79.52136304 -24.9375 79.4375 C-24.24720703 79.44910156 -23.55691406 79.46070313 -22.84570312 79.47265625 C-17.13203806 79.44016147 -12.94192791 78.12942791 -8.875 74.0625 C-8.29157647 70.60480809 -8.29157647 70.60480809 -8.875 67.0625 C-11.16004837 65.09122012 -11.16004837 65.09122012 -13.875 64.0625 C-14.865 63.5675 -14.865 63.5675 -15.875 63.0625 C-18.24854987 62.92932077 -20.62410959 62.83136611 -23 62.75 C-36.96371189 62.02995885 -49.4157617 59.35597745 -59.6875 49.3125 C-66.03776754 39.8778168 -67.42516519 30.23823963 -65.875 19.0625 C-63.45203779 10.63573761 -57.8028599 5.25959526 -51.1875 -0.125 C-36.06307387 -8.40062939 -14.86599854 -9.57923234 0 0 Z " fill="#FAFAFA" transform="translate(290.875,213.9375)"/>
<path d="M0 0 C1.50626953 0.01353516 1.50626953 0.01353516 3.04296875 0.02734375 C5.48724126 0.05062254 7.93098408 0.08331513 10.375 0.125 C10.375 0.455 10.375 0.785 10.375 1.125 C9.39402344 1.16238281 8.41304687 1.19976562 7.40234375 1.23828125 C-9.39267898 2.00188208 -24.90234822 3.9913152 -37.6484375 15.94921875 C-45.56335344 24.66188314 -47.19733256 34.97786029 -46.94140625 46.3671875 C-46.33840812 58.51293234 -43.38897973 70.41605107 -37.625 81.125 C-37.07199219 82.23488281 -36.51898438 83.34476562 -35.94921875 84.48828125 C-28.71096385 98.83392124 -19.79921813 112.16269469 -9.171875 124.2109375 C-6.90387997 126.80591341 -4.79590866 129.46343601 -2.6875 132.1875 C1.98619441 137.94039294 7.20199243 143.13474281 12.4375 148.375 C13.28884521 149.22715088 14.14019043 150.07930176 15.01733398 150.95727539 C19.98108927 155.87771273 25.06245169 160.58522542 30.375 165.125 C31.85613281 166.42824219 31.85613281 166.42824219 33.3671875 167.7578125 C54.10374236 185.68453608 77.98041358 201.96141674 102.73046875 213.8515625 C104.87349633 214.88350783 106.99474331 215.94281974 109.11328125 217.0234375 C119.46883797 222.29592 129.75303622 227.23559519 140.98046875 230.3828125 C143.35882185 231.11998556 145.53967061 232.04973665 147.8125 233.0625 C155.60890261 236.29031 164.1062797 237.61406988 172.375 239.125 C173.4475 239.32222656 174.52 239.51945313 175.625 239.72265625 C181.31048924 240.33266187 186.97324212 240.35011483 192.6875 240.375 C193.85990234 240.395625 195.03230469 240.41625 196.24023438 240.4375 C209.24269836 240.49557912 221.17722606 236.68003207 231.75 228.875 C237.68041448 222.66218483 241.11236537 215.34193628 243.375 207.125 C243.705 207.125 244.035 207.125 244.375 207.125 C244.05726586 216.81589112 240.28006687 224.29396129 233.75 231.4375 C220.32044611 243.80282509 202.14688073 244.84270489 184.80859375 244.40234375 C155.19781985 243.15322831 126.06896683 231.70903086 100.11425781 218.03955078 C98.49700188 217.18915202 96.869947 216.3574605 95.2421875 215.52734375 C81.09822445 208.16597168 67.53576257 199.59392313 54.625 190.25 C53.87782715 189.71036621 53.1306543 189.17073242 52.36083984 188.61474609 C48.49419464 185.78598525 44.88550751 182.82157667 41.3125 179.625 C38.55769686 177.44073024 38.55769686 177.44073024 35.16015625 177.2734375 C32.8905683 177.93929871 32.8905683 177.93929871 30.90625 178.9296875 C22.9023023 182.70932947 15.94105822 183.54314652 7.12109375 183.41796875 C5.97963394 183.41372391 4.83817413 183.40947906 3.66212463 183.40510559 C0.0453349 183.38842151 -3.57088098 183.35078766 -7.1875 183.3125 C-9.65168462 183.29743992 -12.11587803 183.28375384 -14.58007812 183.27148438 C-20.5952452 183.23855166 -26.61008158 183.18845529 -32.625 183.125 C-32.61976318 182.14575562 -32.61452637 181.16651123 -32.60913086 180.15759277 C-32.56469855 170.86171362 -32.56303117 161.56664423 -32.60165405 152.27072906 C-32.62017235 147.49314885 -32.62439445 142.71650543 -32.59423828 137.93896484 C-32.56560822 133.31536 -32.57675883 128.69330663 -32.61380005 124.06977844 C-32.62116179 122.31903884 -32.61495223 120.56817993 -32.59396362 118.81755066 C-32.45140383 105.84390546 -35.15102921 97.29539094 -41.625 86.125 C-43.36363053 82.37651577 -44.94605427 78.57815098 -46.5 74.75 C-46.87640625 73.85667969 -47.2528125 72.96335937 -47.640625 72.04296875 C-51.22565461 63.28380067 -52.98017651 54.96048521 -52.8125 45.5 C-52.81185547 44.80132812 -52.81121094 44.10265625 -52.81054688 43.3828125 C-52.71057746 31.38648278 -49.65957688 21.71870042 -41.3828125 12.68359375 C-29.75284647 2.37169054 -15.02933627 -0.2608563 0 0 Z " fill="#F5F5F5" transform="translate(158.625,133.875)"/>
<path d="M0 0 C16.30960213 -0.92776325 31.15943128 -0.16784527 44.0546875 11.109375 C44.69664062 11.73328125 45.33859375 12.3571875 46 13 C47.02480469 13.96679688 47.02480469 13.96679688 48.0703125 14.953125 C59.28421309 26.46549443 63.30126033 40.29896729 63.31420898 56.01123047 C63.18349664 62.00114167 62.00116673 67.37767443 60 73 C56.12737953 71.3902409 53.32712527 68.77064927 50.3125 65.9375 C49.78865723 65.44652832 49.26481445 64.95555664 48.72509766 64.44970703 C47.65834075 63.44659833 46.59354836 62.44139624 45.53076172 61.43408203 C44.13751592 60.12883071 42.71285823 58.85731443 41.28515625 57.58984375 C36.63680036 53.31817797 34.31443404 50.48025885 33.4375 44.19921875 C32.13785913 37.66620259 27.32124996 32.65183821 22 29 C20.741875 28.690625 19.48375 28.38125 18.1875 28.0625 C11.50494995 25.84778514 8.29502133 17.78008421 5 12 C4.44570312 11.07058594 3.89140625 10.14117187 3.3203125 9.18359375 C0 3.49028955 0 3.49028955 0 0 Z " fill="#F9F9F9" transform="translate(158,208)"/>
<path d="M0 0 C1.30733343 0.8301081 2.60313914 1.67849274 3.890625 2.5390625 C5.03821289 3.27624512 5.03821289 3.27624512 6.20898438 4.02832031 C7.93020969 5.13405688 9.64798113 6.24518295 11.36279297 7.36083984 C21.53609275 13.96481173 31.83795945 19.98533267 42.67529297 25.42626953 C44.85903715 26.52319547 47.03362918 27.63665339 49.20703125 28.75390625 C59.35049486 33.93842235 69.49409357 38.71284975 80.49609375 41.796875 C82.87444685 42.53404806 85.05529561 43.46379915 87.328125 44.4765625 C95.12452761 47.7043725 103.6219047 49.02813238 111.890625 50.5390625 C112.963125 50.73628906 114.035625 50.93351562 115.140625 51.13671875 C120.82611424 51.74672437 126.48886712 51.76417733 132.203125 51.7890625 C133.37552734 51.8096875 134.54792969 51.8303125 135.75585938 51.8515625 C148.75832336 51.90964162 160.69285106 48.09409457 171.265625 40.2890625 C177.19603948 34.07624733 180.62799037 26.75599878 182.890625 18.5390625 C183.220625 18.5390625 183.550625 18.5390625 183.890625 18.5390625 C183.57289086 28.22995362 179.79569187 35.70802379 173.265625 42.8515625 C159.83607111 55.21688759 141.66250573 56.25676739 124.32421875 55.81640625 C94.71344485 54.56729081 65.58459183 43.12309336 39.62988281 29.45361328 C38.01262688 28.60321452 36.385572 27.771523 34.7578125 26.94140625 C20.18130934 19.3549142 5.88455368 10.61163953 -7.109375 0.5390625 C-4.21213804 -1.77872706 -3.41350186 -1.60383127 0 0 Z " fill="#DDDDDD" transform="translate(219.109375,322.4609375)"/>
<path d="M0 0 C0.33 0 0.66 0 1 0 C0.68226586 9.69089112 -3.09493313 17.16896129 -9.625 24.3125 C-23.04638626 36.67030471 -41.1650875 37.68272182 -58.48828125 37.30078125 C-66.46009086 36.97171481 -74.20039558 35.60997182 -82 34 C-82.98871094 33.80277344 -83.97742188 33.60554688 -84.99609375 33.40234375 C-85.65738281 33.26957031 -86.31867188 33.13679688 -87 33 C-87 32.01 -87 31.02 -87 30 C-83.92005172 28.46002586 -81.61473099 29.60997731 -78.3125 30.375 C-68.98210884 32.51968712 -60.24027888 33.20839835 -50.6875 33.25 C-49.51509766 33.270625 -48.34269531 33.29125 -47.13476562 33.3125 C-34.13230164 33.37057912 -22.19777394 29.55503207 -11.625 21.75 C-5.69458552 15.53718483 -2.26263463 8.21693628 0 0 Z " fill="#CECECE" transform="translate(402,341)"/>
<path d="M0 0 C7.875 6.75 7.875 6.75 10.30859375 9.2109375 C10.82744141 9.73300781 11.34628906 10.25507813 11.88085938 10.79296875 C12.39455078 11.31503906 12.90824219 11.83710938 13.4375 12.375 C13.97826172 12.92027344 14.51902344 13.46554687 15.07617188 14.02734375 C16.38646723 15.34923464 17.69358284 16.67427618 19 18 C18.67 18.66 18.34 19.32 18 20 C12.06 20 6.12 20 0 20 C0 13.4 0 6.8 0 0 Z " fill="#1F1F1F" transform="translate(154,272)"/>
<path d="M0 0 C1.31932853 0.83819886 2.62805844 1.69316502 3.9296875 2.55859375 C5.65594319 3.65152641 7.38253079 4.74393493 9.109375 5.8359375 C11.96221446 7.66594894 14.81190402 9.50074846 17.66015625 11.33789062 C23.31069344 14.96033044 29.01305432 18.38785703 34.9296875 21.55859375 C31.9296875 23.55859375 31.9296875 23.55859375 29.51538086 23.33178711 C26.90311866 22.55064894 24.89193674 21.58844236 22.55859375 20.1875 C21.3351123 19.45611816 21.3351123 19.45611816 20.08691406 18.70996094 C19.2306543 18.18563477 18.37439453 17.66130859 17.4921875 17.12109375 C16.61143555 16.58774414 15.73068359 16.05439453 14.82324219 15.50488281 C7.26147049 10.87326329 0.02667026 5.86958085 -7.0703125 0.55859375 C-4.19344912 -1.74289695 -3.38755317 -1.59033985 0 0 Z " fill="#E7E7E7" transform="translate(219.0703125,322.44140625)"/>
<path d="M0 0 C16.59676982 6.32257898 33.59655046 15.63962402 48 26 C47.01 26.495 47.01 26.495 46 27 C44.24194336 26.18652344 44.24194336 26.18652344 42.08984375 24.859375 C41.27628418 24.37065918 40.46272461 23.88194336 39.62451172 23.37841797 C38.73779785 22.84104004 37.85108398 22.30366211 36.9375 21.75 C25.80858663 15.16749956 14.22456736 10.01170301 2.30224609 5.04638672 C0 4 0 4 -3 2 C-2.01 2 -1.02 2 0 2 C0 1.34 0 0.68 0 0 Z " fill="#BFBFBF" transform="translate(233,159)"/>
<path d="M0 0 C0.87229248 0.17390259 0.87229248 0.17390259 1.76220703 0.35131836 C16.20850625 3.17924291 30.2814459 4.74806666 45 5 C45 5.33 45 5.66 45 6 C13.67959553 7.81305261 13.67959553 7.81305261 0 4 C0 2.66666667 0 1.33333333 0 0 Z " fill="#DDDDDD" transform="translate(315,370)"/>
<path d="M0 0 C0 0.33 0 0.66 0 1 C-0.98097656 1.03738281 -1.96195313 1.07476562 -2.97265625 1.11328125 C-15.51648901 1.6835979 -27.94299785 2.60999366 -39.046875 9.01171875 C-41 10 -41 10 -44 10 C-44 9.01 -44 8.02 -44 7 C-30.21250178 -0.99674897 -15.43337703 -0.40878953 0 0 Z " fill="#BCBCBC" transform="translate(169,134)"/>
<path d="M0 0 C-3.46275635 4.11695788 -7.67721754 4.31942818 -12.82861328 4.85205078 C-20.85874524 5.39919042 -28.95791602 5.13954497 -37 5 C-37 4.34 -37 3.68 -37 3 C-36.38592285 2.98018066 -35.7718457 2.96036133 -35.13916016 2.93994141 C-32.30074617 2.84346198 -29.46294843 2.73429198 -26.625 2.625 C-25.65949219 2.5940625 -24.69398438 2.563125 -23.69921875 2.53125 C-18.06021747 2.30417612 -12.76470126 1.7086063 -7.26708984 0.41552734 C-4.80192831 -0.0363039 -2.50081346 -0.06785794 0 0 Z " fill="#E1E1E1" transform="translate(375,373)"/>
<path d="M0 0 C5.34696474 0.46495346 9.65171205 1.92534453 14.5703125 4.0625 C17.03864952 5.014913 19.39659662 5.55529053 22 6 C22 6.33 22 6.66 22 7 C15.03672362 7.33693273 9.56654456 6.3030887 3 4 C3 3.34 3 2.68 3 2 C2.01 2 1.02 2 0 2 C0 1.34 0 0.68 0 0 Z " fill="#E7E7E7" transform="translate(299,366)"/>
<path d="M0 0 C0.33 0 0.66 0 1 0 C1.18451025 12.66970387 1.18451025 12.66970387 0 18 C-0.66 17.01 -1.32 16.02 -2 15 C-3.98 15.99 -3.98 15.99 -6 17 C-5.38125 15.865625 -4.7625 14.73125 -4.125 13.5625 C-1.90992828 9.17163089 -0.8482631 4.82170604 0 0 Z " fill="#CECECE" transform="translate(396,326)"/>
<path d="M0 0 C12.87 0.495 12.87 0.495 26 1 C26 1.33 26 1.66 26 2 C16.43 2.33 6.86 2.66 -3 3 C-2.01 2.67 -1.02 2.34 0 2 C0 1.34 0 0.68 0 0 Z " fill="#BEBEBE" transform="translate(334,374)"/>
<path d="M0 0 C4.95 0.99 4.95 0.99 10 2 C9.67 2.99 9.34 3.98 9 5 C6.03 4.67 3.06 4.34 0 4 C0 2.66666667 0 1.33333333 0 0 Z " fill="#C8C8C8" transform="translate(315,370)"/>
<path d="M0 0 C2.34765625 0.92578125 2.34765625 0.92578125 5.0625 2.3125 C6.41021484 2.98732422 6.41021484 2.98732422 7.78515625 3.67578125 C10 5 10 5 11 7 C1.40546697 4.10933941 1.40546697 4.10933941 -2 1 C-1.34 0.67 -0.68 0.34 0 0 Z " fill="#C0C0C0" transform="translate(253,169)"/>
<path d="M0 0 C-1 2 -1 2 -2.7421875 2.703125 C-3.44601563 2.88359375 -4.14984375 3.0640625 -4.875 3.25 C-5.57367188 3.44078125 -6.27234375 3.6315625 -6.9921875 3.828125 C-9 4 -9 4 -12 2 C-7.82262526 0.40861915 -4.46839215 -0.21278058 0 0 Z " fill="#C6C6C6" transform="translate(143,136)"/>
<path d="M0 0 C3.465 1.485 3.465 1.485 7 3 C7 3.66 7 4.32 7 5 C4.36 4.67 1.72 4.34 -1 4 C-0.67 2.68 -0.34 1.36 0 0 Z " fill="#E7E7E7" transform="translate(226,156)"/>
<path d="M0 0 C0 0.66 0 1.32 0 2 C0.66 2.33 1.32 2.66 2 3 C-0.31 3.66 -2.62 4.32 -5 5 C-5.66 4.01 -6.32 3.02 -7 2 C-2.25 0 -2.25 0 0 0 Z " fill="#C1C1C1" transform="translate(379,370)"/>
<path d="M0 0 C0.721875 0.144375 1.44375 0.28875 2.1875 0.4375 C3.5796875 0.7159375 3.5796875 0.7159375 5 1 C6.66666667 1.33333333 8.33333333 1.66666667 10 2 C10 2.33 10 2.66 10 3 C7.03 3 4.06 3 1 3 C0.67 2.01 0.34 1.02 0 0 Z " fill="#EFEFEF" transform="translate(311,370)"/>
</svg>
